<?xml version="1.0" encoding="UTF-8" standalone="no"?>
<!DOCTYPE svg PUBLIC "-//W3C//DTD SVG 1.1//EN"
 "http://www.w3.org/Graphics/SVG/1.1/DTD/svg11.dtd">
<!-- Generated by graphviz version 2.40.1 (20161225.0304)
 -->
<!-- Title: dependencies Pages: 1 -->
<svg width="553pt" height="284pt"
 viewBox="0.00 0.00 553.00 284.00" xmlns="http://www.w3.org/2000/svg" xmlns:xlink="http://www.w3.org/1999/xlink">
<g id="graph0" class="graph" transform="scale(1 1) rotate(0) translate(4 280)">
<title>dependencies</title>
<polygon fill="#ffffff" stroke="transparent" points="-4,4 -4,-280 549,-280 549,4 -4,4"/>
<text text-anchor="start" x="251.5091" y="-42.4" font-family="sans-serif" font-weight="bold" font-size="14.00" fill="#000000">Legend</text>
<polygon fill="#ffffb3" stroke="transparent" points="38.5,-10 38.5,-30 58.5,-30 58.5,-10 38.5,-10"/>
<text text-anchor="start" x="62.129" y="-15.4" font-family="sans-serif" font-size="14.00" fill="#000000"> &#160;Declarations</text>
<polygon fill="#8dd3c7" stroke="transparent" points="151.5,-10 151.5,-30 171.5,-30 171.5,-10 151.5,-10"/>
<text text-anchor="start" x="175.2251" y="-15.4" font-family="sans-serif" font-size="14.00" fill="#000000"> &#160;Module</text>
<polygon fill="#80b1d3" stroke="transparent" points="237.5,-10 237.5,-30 257.5,-30 257.5,-10 237.5,-10"/>
<text text-anchor="start" x="261.2812" y="-15.4" font-family="sans-serif" font-size="14.00" fill="#000000"> &#160;Bootstrap</text>
<polygon fill="#fdb462" stroke="transparent" points="334.5,-10 334.5,-30 354.5,-30 354.5,-10 334.5,-10"/>
<text text-anchor="start" x="358.1732" y="-15.4" font-family="sans-serif" font-size="14.00" fill="#000000"> &#160;Providers</text>
<polygon fill="#fb8072" stroke="transparent" points="430.5,-10 430.5,-30 450.5,-30 450.5,-10 430.5,-10"/>
<text text-anchor="start" x="454.2258" y="-15.4" font-family="sans-serif" font-size="14.00" fill="#000000"> &#160;Exports</text>
<g id="clust1" class="cluster">
<title>cluster_SharedModule</title>
<polygon fill="none" stroke="#000000" stroke-dasharray="1,5" points="8,-70 8,-268 537,-268 537,-70 8,-70"/>
</g>
<g id="clust2" class="cluster">
<title>cluster_SharedModule_declarations</title>
<polygon fill="none" stroke="#000000" points="21,-78 21,-130 523,-130 523,-78 21,-78"/>
</g>
<g id="clust7" class="cluster">
<title>cluster_SharedModule_exports</title>
<polygon fill="none" stroke="#000000" points="16,-208 16,-260 529,-260 529,-208 16,-208"/>
</g>
<!-- ParallaxDirective -->
<g id="node1" class="node">
<title>ParallaxDirective</title>
<polygon fill="#ffffb3" stroke="#000000" points="514.951,-122 401.049,-122 401.049,-86 514.951,-86 514.951,-122"/>
<text text-anchor="middle" x="458" y="-99.8" font-family="Times,serif" font-size="14.00" fill="#000000">ParallaxDirective</text>
</g>
<!-- SharedModule -->
<g id="node4" class="node">
<title>SharedModule</title>
<polygon fill="#8dd3c7" stroke="#000000" points="344.4231,-187 341.4231,-191 320.4231,-191 317.4231,-187 245.5769,-187 245.5769,-151 344.4231,-151 344.4231,-187"/>
<text text-anchor="middle" x="295" y="-164.8" font-family="Times,serif" font-size="14.00" fill="#000000">SharedModule</text>
</g>
<!-- ParallaxDirective&#45;&gt;SharedModule -->
<g id="edge1" class="edge">
<title>ParallaxDirective&#45;&gt;SharedModule</title>
<path fill="none" stroke="#000000" d="M477.7418,-122.0225C477.7418,-139.3734 477.7418,-163 477.7418,-163 477.7418,-163 354.4526,-163 354.4526,-163"/>
<polygon fill="#000000" stroke="#000000" points="354.4526,-159.5001 344.4526,-163 354.4525,-166.5001 354.4526,-159.5001"/>
</g>
<!-- TransparentNavbarDirective -->
<g id="node2" class="node">
<title>TransparentNavbarDirective</title>
<polygon fill="#ffffb3" stroke="#000000" points="383.132,-122 206.868,-122 206.868,-86 383.132,-86 383.132,-122"/>
<text text-anchor="middle" x="295" y="-99.8" font-family="Times,serif" font-size="14.00" fill="#000000">TransparentNavbarDirective</text>
</g>
<!-- TransparentNavbarDirective&#45;&gt;SharedModule -->
<g id="edge2" class="edge">
<title>TransparentNavbarDirective&#45;&gt;SharedModule</title>
<path fill="none" stroke="#000000" d="M295,-122.1061C295,-122.1061 295,-140.991 295,-140.991"/>
<polygon fill="#000000" stroke="#000000" points="291.5001,-140.9909 295,-150.991 298.5001,-140.991 291.5001,-140.9909"/>
</g>
<!-- TwoDigitsTransformPipe -->
<g id="node3" class="node">
<title>TwoDigitsTransformPipe</title>
<polygon fill="#ffffb3" stroke="#000000" points="188.8543,-122 29.1457,-122 29.1457,-86 188.8543,-86 188.8543,-122"/>
<text text-anchor="middle" x="109" y="-99.8" font-family="Times,serif" font-size="14.00" fill="#000000">TwoDigitsTransformPipe</text>
</g>
<!-- TwoDigitsTransformPipe&#45;&gt;SharedModule -->
<g id="edge3" class="edge">
<title>TwoDigitsTransformPipe&#45;&gt;SharedModule</title>
<path fill="none" stroke="#000000" d="M134.809,-122.0225C134.809,-139.3734 134.809,-163 134.809,-163 134.809,-163 235.6303,-163 235.6303,-163"/>
<polygon fill="#000000" stroke="#000000" points="235.6304,-166.5001 245.6303,-163 235.6303,-159.5001 235.6304,-166.5001"/>
</g>
<!-- ParallaxDirective  -->
<g id="node5" class="node">
<title>ParallaxDirective </title>
<polygon fill="#fb8072" stroke="#000000" points="520.9519,-252 403.0481,-252 403.0481,-216 520.9519,-216 520.9519,-252"/>
<text text-anchor="middle" x="462" y="-229.8" font-family="Times,serif" font-size="14.00" fill="#000000">ParallaxDirective </text>
</g>
<!-- SharedModule&#45;&gt;ParallaxDirective  -->
<g id="edge4" class="edge">
<title>SharedModule&#45;&gt;ParallaxDirective </title>
<path fill="none" stroke="#000000" stroke-dasharray="5,2" d="M344.2624,-175C386.4755,-175 440.5082,-175 440.5082,-175 440.5082,-175 440.5082,-205.9775 440.5082,-205.9775"/>
<polygon fill="#000000" stroke="#000000" points="437.0083,-205.9774 440.5082,-215.9775 444.0083,-205.9775 437.0083,-205.9774"/>
</g>
<!-- TransparentNavbarDirective  -->
<g id="node6" class="node">
<title>TransparentNavbarDirective </title>
<polygon fill="#fb8072" stroke="#000000" points="384.6324,-252 205.3676,-252 205.3676,-216 384.6324,-216 384.6324,-252"/>
<text text-anchor="middle" x="295" y="-229.8" font-family="Times,serif" font-size="14.00" fill="#000000">TransparentNavbarDirective </text>
</g>
<!-- SharedModule&#45;&gt;TransparentNavbarDirective  -->
<g id="edge5" class="edge">
<title>SharedModule&#45;&gt;TransparentNavbarDirective </title>
<path fill="none" stroke="#000000" stroke-dasharray="5,2" d="M295,-187.1061C295,-187.1061 295,-205.991 295,-205.991"/>
<polygon fill="#000000" stroke="#000000" points="291.5001,-205.9909 295,-215.991 298.5001,-205.991 291.5001,-205.9909"/>
</g>
<!-- TwoDigitsTransformPipe  -->
<g id="node7" class="node">
<title>TwoDigitsTransformPipe </title>
<polygon fill="#fb8072" stroke="#000000" points="187.8546,-252 24.1454,-252 24.1454,-216 187.8546,-216 187.8546,-252"/>
<text text-anchor="middle" x="106" y="-229.8" font-family="Times,serif" font-size="14.00" fill="#000000">TwoDigitsTransformPipe </text>
</g>
<!-- SharedModule&#45;&gt;TwoDigitsTransformPipe  -->
<g id="edge6" class="edge">
<title>SharedModule&#45;&gt;TwoDigitsTransformPipe </title>
<path fill="none" stroke="#000000" stroke-dasharray="5,2" d="M245.5845,-175C182.6447,-175 81.941,-175 81.941,-175 81.941,-175 81.941,-205.9775 81.941,-205.9775"/>
<polygon fill="#000000" stroke="#000000" points="78.4411,-205.9774 81.941,-215.9775 85.4411,-205.9775 78.4411,-205.9774"/>
</g>
</g>
</svg>
