<?xml version="1.0" encoding="UTF-8" standalone="no"?>
<!DOCTYPE svg PUBLIC "-//W3C//DTD SVG 1.1//EN"
 "http://www.w3.org/Graphics/SVG/1.1/DTD/svg11.dtd">
<!-- Generated by graphviz version 2.40.1 (20161225.0304)
 -->
<!-- Title: dependencies Pages: 1 -->
<svg width="2388pt" height="211pt"
 viewBox="0.00 0.00 2388.00 211.00" xmlns="http://www.w3.org/2000/svg" xmlns:xlink="http://www.w3.org/1999/xlink">
<g id="graph0" class="graph" transform="scale(1 1) rotate(0) translate(4 207)">
<title>dependencies</title>
<polygon fill="#ffffff" stroke="transparent" points="-4,4 -4,-207 2384,-207 2384,4 -4,4"/>
<text text-anchor="start" x="1169.0091" y="-42.4" font-family="sans-serif" font-weight="bold" font-size="14.00" fill="#000000">Legend</text>
<polygon fill="#ffffb3" stroke="transparent" points="956,-10 956,-30 976,-30 976,-10 956,-10"/>
<text text-anchor="start" x="979.629" y="-15.4" font-family="sans-serif" font-size="14.00" fill="#000000"> &#160;Declarations</text>
<polygon fill="#8dd3c7" stroke="transparent" points="1069,-10 1069,-30 1089,-30 1089,-10 1069,-10"/>
<text text-anchor="start" x="1092.7251" y="-15.4" font-family="sans-serif" font-size="14.00" fill="#000000"> &#160;Module</text>
<polygon fill="#80b1d3" stroke="transparent" points="1155,-10 1155,-30 1175,-30 1175,-10 1155,-10"/>
<text text-anchor="start" x="1178.7812" y="-15.4" font-family="sans-serif" font-size="14.00" fill="#000000"> &#160;Bootstrap</text>
<polygon fill="#fdb462" stroke="transparent" points="1252,-10 1252,-30 1272,-30 1272,-10 1252,-10"/>
<text text-anchor="start" x="1275.6732" y="-15.4" font-family="sans-serif" font-size="14.00" fill="#000000"> &#160;Providers</text>
<polygon fill="#fb8072" stroke="transparent" points="1348,-10 1348,-30 1368,-30 1368,-10 1348,-10"/>
<text text-anchor="start" x="1371.7258" y="-15.4" font-family="sans-serif" font-size="14.00" fill="#000000"> &#160;Exports</text>
<g id="clust1" class="cluster">
<title>cluster_HomeModule</title>
<polygon fill="none" stroke="#000000" stroke-dasharray="1,5" points="8,-70 8,-195 2372,-195 2372,-70 8,-70"/>
</g>
<g id="clust2" class="cluster">
<title>cluster_HomeModule_declarations</title>
<polygon fill="none" stroke="#000000" points="760,-78 760,-130 2364,-130 2364,-78 760,-78"/>
</g>
<g id="clust14" class="cluster">
<title>cluster_HomeModule_imports</title>
<polygon fill="none" stroke="#000000" points="638,-78 638,-130 752,-130 752,-78 638,-78"/>
</g>
<g id="clust17" class="cluster">
<title>cluster_HomeModule_providers</title>
<polygon fill="none" stroke="#000000" points="16,-78 16,-130 630,-130 630,-78 16,-78"/>
</g>
<!-- AboutComponent -->
<g id="node1" class="node">
<title>AboutComponent</title>
<polygon fill="#ffffb3" stroke="#000000" points="2356.3301,-122 2239.6699,-122 2239.6699,-86 2356.3301,-86 2356.3301,-122"/>
<text text-anchor="middle" x="2298" y="-99.8" font-family="Times,serif" font-size="14.00" fill="#000000">AboutComponent</text>
</g>
<!-- HomeModule -->
<g id="node12" class="node">
<title>HomeModule</title>
<polygon fill="#8dd3c7" stroke="#000000" points="1246.7619,-187 1243.7619,-191 1222.7619,-191 1219.7619,-187 1153.2381,-187 1153.2381,-151 1246.7619,-151 1246.7619,-187"/>
<text text-anchor="middle" x="1200" y="-164.8" font-family="Times,serif" font-size="14.00" fill="#000000">HomeModule</text>
</g>
<!-- AboutComponent&#45;&gt;HomeModule -->
<g id="edge1" class="edge">
<title>AboutComponent&#45;&gt;HomeModule</title>
<path fill="none" stroke="#000000" d="M2298,-122.3228C2298,-145.6602 2298,-183 2298,-183 2298,-183 1256.8284,-183 1256.8284,-183"/>
<polygon fill="#000000" stroke="#000000" points="1256.8285,-179.5001 1246.8284,-183 1256.8284,-186.5001 1256.8285,-179.5001"/>
</g>
<!-- BannerComponent -->
<g id="node2" class="node">
<title>BannerComponent</title>
<polygon fill="#ffffb3" stroke="#000000" points="2221.759,-122 2100.241,-122 2100.241,-86 2221.759,-86 2221.759,-122"/>
<text text-anchor="middle" x="2161" y="-99.8" font-family="Times,serif" font-size="14.00" fill="#000000">BannerComponent</text>
</g>
<!-- BannerComponent&#45;&gt;HomeModule -->
<g id="edge2" class="edge">
<title>BannerComponent&#45;&gt;HomeModule</title>
<path fill="none" stroke="#000000" d="M2161,-122.2921C2161,-144.2057 2161,-178 2161,-178 2161,-178 1257.0016,-178 1257.0016,-178"/>
<polygon fill="#000000" stroke="#000000" points="1257.0016,-174.5001 1247.0016,-178 1257.0015,-181.5001 1257.0016,-174.5001"/>
</g>
<!-- CountDownComponent -->
<g id="node3" class="node">
<title>CountDownComponent</title>
<polygon fill="#ffffb3" stroke="#000000" points="2081.773,-122 1932.227,-122 1932.227,-86 2081.773,-86 2081.773,-122"/>
<text text-anchor="middle" x="2007" y="-99.8" font-family="Times,serif" font-size="14.00" fill="#000000">CountDownComponent</text>
</g>
<!-- CountDownComponent&#45;&gt;HomeModule -->
<g id="edge3" class="edge">
<title>CountDownComponent&#45;&gt;HomeModule</title>
<path fill="none" stroke="#000000" d="M2007,-122.0267C2007,-142.7672 2007,-174 2007,-174 2007,-174 1256.8759,-174 1256.8759,-174"/>
<polygon fill="#000000" stroke="#000000" points="1256.8759,-170.5001 1246.8759,-174 1256.8758,-177.5001 1256.8759,-170.5001"/>
</g>
<!-- EventsComponent -->
<g id="node4" class="node">
<title>EventsComponent</title>
<polygon fill="#ffffb3" stroke="#000000" points="1913.9356,-122 1794.0644,-122 1794.0644,-86 1913.9356,-86 1913.9356,-122"/>
<text text-anchor="middle" x="1854" y="-99.8" font-family="Times,serif" font-size="14.00" fill="#000000">EventsComponent</text>
</g>
<!-- EventsComponent&#45;&gt;HomeModule -->
<g id="edge4" class="edge">
<title>EventsComponent&#45;&gt;HomeModule</title>
<path fill="none" stroke="#000000" d="M1854,-122.1061C1854,-141.3391 1854,-169 1854,-169 1854,-169 1256.7716,-169 1256.7716,-169"/>
<polygon fill="#000000" stroke="#000000" points="1256.7716,-165.5001 1246.7716,-169 1256.7716,-172.5001 1256.7716,-165.5001"/>
</g>
<!-- HomeComponent -->
<g id="node5" class="node">
<title>HomeComponent</title>
<polygon fill="#ffffb3" stroke="#000000" points="1776.5451,-122 1661.4549,-122 1661.4549,-86 1776.5451,-86 1776.5451,-122"/>
<text text-anchor="middle" x="1719" y="-99.8" font-family="Times,serif" font-size="14.00" fill="#000000">HomeComponent</text>
</g>
<!-- HomeComponent&#45;&gt;HomeModule -->
<g id="edge5" class="edge">
<title>HomeComponent&#45;&gt;HomeModule</title>
<path fill="none" stroke="#000000" d="M1719,-122.302C1719,-140.2699 1719,-165 1719,-165 1719,-165 1256.9732,-165 1256.9732,-165"/>
<polygon fill="#000000" stroke="#000000" points="1256.9732,-161.5001 1246.9732,-165 1256.9731,-168.5001 1256.9732,-161.5001"/>
</g>
<!-- LocationComponent -->
<g id="node6" class="node">
<title>LocationComponent</title>
<polygon fill="#ffffb3" stroke="#000000" points="1643.5954,-122 1512.4046,-122 1512.4046,-86 1643.5954,-86 1643.5954,-122"/>
<text text-anchor="middle" x="1578" y="-99.8" font-family="Times,serif" font-size="14.00" fill="#000000">LocationComponent</text>
</g>
<!-- LocationComponent&#45;&gt;HomeModule -->
<g id="edge6" class="edge">
<title>LocationComponent&#45;&gt;HomeModule</title>
<path fill="none" stroke="#000000" d="M1578,-122.027C1578,-138.3976 1578,-160 1578,-160 1578,-160 1257.1097,-160 1257.1097,-160"/>
<polygon fill="#000000" stroke="#000000" points="1257.1097,-156.5001 1247.1097,-160 1257.1096,-163.5001 1257.1097,-156.5001"/>
</g>
<!-- MetricsComponent -->
<g id="node7" class="node">
<title>MetricsComponent</title>
<polygon fill="#ffffb3" stroke="#000000" points="1494.0926,-122 1369.9074,-122 1369.9074,-86 1494.0926,-86 1494.0926,-122"/>
<text text-anchor="middle" x="1432" y="-99.8" font-family="Times,serif" font-size="14.00" fill="#000000">MetricsComponent</text>
</g>
<!-- MetricsComponent&#45;&gt;HomeModule -->
<g id="edge7" class="edge">
<title>MetricsComponent&#45;&gt;HomeModule</title>
<path fill="none" stroke="#000000" d="M1432,-122.1871C1432,-137.1824 1432,-156 1432,-156 1432,-156 1256.9487,-156 1256.9487,-156"/>
<polygon fill="#000000" stroke="#000000" points="1256.9487,-152.5001 1246.9487,-156 1256.9486,-159.5001 1256.9487,-152.5001"/>
</g>
<!-- ParticipantsComponent -->
<g id="node8" class="node">
<title>ParticipantsComponent</title>
<polygon fill="#ffffb3" stroke="#000000" points="1351.927,-122 1204.073,-122 1204.073,-86 1351.927,-86 1351.927,-122"/>
<text text-anchor="middle" x="1278" y="-99.8" font-family="Times,serif" font-size="14.00" fill="#000000">ParticipantsComponent</text>
</g>
<!-- ParticipantsComponent&#45;&gt;HomeModule -->
<g id="edge8" class="edge">
<title>ParticipantsComponent&#45;&gt;HomeModule</title>
<path fill="none" stroke="#000000" d="M1225.5838,-122.1061C1225.5838,-122.1061 1225.5838,-140.991 1225.5838,-140.991"/>
<polygon fill="#000000" stroke="#000000" points="1222.0839,-140.9909 1225.5838,-150.991 1229.0839,-140.991 1222.0839,-140.9909"/>
</g>
<!-- PartnersComponent -->
<g id="node9" class="node">
<title>PartnersComponent</title>
<polygon fill="#ffffb3" stroke="#000000" points="1186.7008,-122 1059.2992,-122 1059.2992,-86 1186.7008,-86 1186.7008,-122"/>
<text text-anchor="middle" x="1123" y="-99.8" font-family="Times,serif" font-size="14.00" fill="#000000">PartnersComponent</text>
</g>
<!-- PartnersComponent&#45;&gt;HomeModule -->
<g id="edge9" class="edge">
<title>PartnersComponent&#45;&gt;HomeModule</title>
<path fill="none" stroke="#000000" d="M1169.8598,-122.1061C1169.8598,-122.1061 1169.8598,-140.991 1169.8598,-140.991"/>
<polygon fill="#000000" stroke="#000000" points="1166.3598,-140.9909 1169.8598,-150.991 1173.3598,-140.991 1166.3598,-140.9909"/>
</g>
<!-- ScrollSpyDirective -->
<g id="node10" class="node">
<title>ScrollSpyDirective</title>
<polygon fill="#ffffb3" stroke="#000000" points="1041.8048,-122 918.1952,-122 918.1952,-86 1041.8048,-86 1041.8048,-122"/>
<text text-anchor="middle" x="980" y="-99.8" font-family="Times,serif" font-size="14.00" fill="#000000">ScrollSpyDirective</text>
</g>
<!-- ScrollSpyDirective&#45;&gt;HomeModule -->
<g id="edge10" class="edge">
<title>ScrollSpyDirective&#45;&gt;HomeModule</title>
<path fill="none" stroke="#000000" d="M980,-122.1871C980,-137.1824 980,-156 980,-156 980,-156 1143.0743,-156 1143.0743,-156"/>
<polygon fill="#000000" stroke="#000000" points="1143.0744,-159.5001 1153.0743,-156 1143.0743,-152.5001 1143.0744,-159.5001"/>
</g>
<!-- SponsorsComponent -->
<g id="node11" class="node">
<title>SponsorsComponent</title>
<polygon fill="#ffffb3" stroke="#000000" points="900.1652,-122 767.8348,-122 767.8348,-86 900.1652,-86 900.1652,-122"/>
<text text-anchor="middle" x="834" y="-99.8" font-family="Times,serif" font-size="14.00" fill="#000000">SponsorsComponent</text>
</g>
<!-- SponsorsComponent&#45;&gt;HomeModule -->
<g id="edge11" class="edge">
<title>SponsorsComponent&#45;&gt;HomeModule</title>
<path fill="none" stroke="#000000" d="M834,-122.027C834,-138.3976 834,-160 834,-160 834,-160 1142.9012,-160 1142.9012,-160"/>
<polygon fill="#000000" stroke="#000000" points="1142.9012,-163.5001 1152.9012,-160 1142.9011,-156.5001 1142.9012,-163.5001"/>
</g>
<!-- SharedModule -->
<g id="node13" class="node">
<title>SharedModule</title>
<polygon fill="#8dd3c7" stroke="#000000" points="744.4231,-122 741.4231,-126 720.4231,-126 717.4231,-122 645.5769,-122 645.5769,-86 744.4231,-86 744.4231,-122"/>
<text text-anchor="middle" x="695" y="-99.8" font-family="Times,serif" font-size="14.00" fill="#000000">SharedModule</text>
</g>
<!-- SharedModule&#45;&gt;HomeModule -->
<g id="edge12" class="edge">
<title>SharedModule&#45;&gt;HomeModule</title>
<path fill="none" stroke="#000000" d="M695,-122.302C695,-140.2699 695,-165 695,-165 695,-165 1142.9443,-165 1142.9443,-165"/>
<polygon fill="#000000" stroke="#000000" points="1142.9443,-168.5001 1152.9443,-165 1142.9443,-161.5001 1142.9443,-168.5001"/>
</g>
<!-- EventService -->
<g id="node14" class="node">
<title>EventService</title>
<ellipse fill="#fdb462" stroke="#000000" cx="559" cy="-104" rx="62.5373" ry="18"/>
<text text-anchor="middle" x="559" y="-99.8" font-family="Times,serif" font-size="14.00" fill="#000000">EventService</text>
</g>
<!-- EventService&#45;&gt;HomeModule -->
<g id="edge13" class="edge">
<title>EventService&#45;&gt;HomeModule</title>
<path fill="none" stroke="#000000" d="M559,-122.1061C559,-141.3391 559,-169 559,-169 559,-169 1143.1254,-169 1143.1254,-169"/>
<polygon fill="#000000" stroke="#000000" points="1143.1255,-172.5001 1153.1254,-169 1143.1254,-165.5001 1143.1255,-172.5001"/>
</g>
<!-- MetricsService -->
<g id="node15" class="node">
<title>MetricsService</title>
<ellipse fill="#fdb462" stroke="#000000" cx="409" cy="-104" rx="69.4742" ry="18"/>
<text text-anchor="middle" x="409" y="-99.8" font-family="Times,serif" font-size="14.00" fill="#000000">MetricsService</text>
</g>
<!-- MetricsService&#45;&gt;HomeModule -->
<g id="edge14" class="edge">
<title>MetricsService&#45;&gt;HomeModule</title>
<path fill="none" stroke="#000000" d="M409,-122.0267C409,-142.7672 409,-174 409,-174 409,-174 1143.1807,-174 1143.1807,-174"/>
<polygon fill="#000000" stroke="#000000" points="1143.1807,-177.5001 1153.1807,-174 1143.1807,-170.5001 1143.1807,-177.5001"/>
</g>
<!-- PartnerService -->
<g id="node16" class="node">
<title>PartnerService</title>
<ellipse fill="#fdb462" stroke="#000000" cx="254" cy="-104" rx="67.7509" ry="18"/>
<text text-anchor="middle" x="254" y="-99.8" font-family="Times,serif" font-size="14.00" fill="#000000">PartnerService</text>
</g>
<!-- PartnerService&#45;&gt;HomeModule -->
<g id="edge15" class="edge">
<title>PartnerService&#45;&gt;HomeModule</title>
<path fill="none" stroke="#000000" d="M254,-122.2921C254,-144.2057 254,-178 254,-178 254,-178 1143.0877,-178 1143.0877,-178"/>
<polygon fill="#000000" stroke="#000000" points="1143.0877,-181.5001 1153.0877,-178 1143.0877,-174.5001 1143.0877,-181.5001"/>
</g>
<!-- SponsorService -->
<g id="node17" class="node">
<title>SponsorService</title>
<ellipse fill="#fdb462" stroke="#000000" cx="96" cy="-104" rx="71.7892" ry="18"/>
<text text-anchor="middle" x="96" y="-99.8" font-family="Times,serif" font-size="14.00" fill="#000000">SponsorService</text>
</g>
<!-- SponsorService&#45;&gt;HomeModule -->
<g id="edge16" class="edge">
<title>SponsorService&#45;&gt;HomeModule</title>
<path fill="none" stroke="#000000" d="M96,-122.3228C96,-145.6602 96,-183 96,-183 96,-183 1142.9157,-183 1142.9157,-183"/>
<polygon fill="#000000" stroke="#000000" points="1142.9157,-186.5001 1152.9157,-183 1142.9156,-179.5001 1142.9157,-186.5001"/>
</g>
</g>
</svg>
