<?xml version="1.0" encoding="UTF-8" standalone="no"?>
<!DOCTYPE svg PUBLIC "-//W3C//DTD SVG 1.1//EN"
 "http://www.w3.org/Graphics/SVG/1.1/DTD/svg11.dtd">
<!-- Generated by graphviz version 2.40.1 (20161225.0304)
 -->
<!-- Title: dependencies Pages: 1 -->
<svg width="639pt" height="284pt"
 viewBox="0.00 0.00 639.00 284.00" xmlns="http://www.w3.org/2000/svg" xmlns:xlink="http://www.w3.org/1999/xlink">
<g id="graph0" class="graph" transform="scale(1 1) rotate(0) translate(4 280)">
<title>dependencies</title>
<polygon fill="#ffffff" stroke="transparent" points="-4,4 -4,-280 635,-280 635,4 -4,4"/>
<text text-anchor="start" x="294.5091" y="-42.4" font-family="sans-serif" font-weight="bold" font-size="14.00" fill="#000000">Legend</text>
<polygon fill="#ffffb3" stroke="transparent" points="81.5,-10 81.5,-30 101.5,-30 101.5,-10 81.5,-10"/>
<text text-anchor="start" x="105.129" y="-15.4" font-family="sans-serif" font-size="14.00" fill="#000000"> &#160;Declarations</text>
<polygon fill="#8dd3c7" stroke="transparent" points="194.5,-10 194.5,-30 214.5,-30 214.5,-10 194.5,-10"/>
<text text-anchor="start" x="218.2251" y="-15.4" font-family="sans-serif" font-size="14.00" fill="#000000"> &#160;Module</text>
<polygon fill="#80b1d3" stroke="transparent" points="280.5,-10 280.5,-30 300.5,-30 300.5,-10 280.5,-10"/>
<text text-anchor="start" x="304.2812" y="-15.4" font-family="sans-serif" font-size="14.00" fill="#000000"> &#160;Bootstrap</text>
<polygon fill="#fdb462" stroke="transparent" points="377.5,-10 377.5,-30 397.5,-30 397.5,-10 377.5,-10"/>
<text text-anchor="start" x="401.1732" y="-15.4" font-family="sans-serif" font-size="14.00" fill="#000000"> &#160;Providers</text>
<polygon fill="#fb8072" stroke="transparent" points="473.5,-10 473.5,-30 493.5,-30 493.5,-10 473.5,-10"/>
<text text-anchor="start" x="497.2258" y="-15.4" font-family="sans-serif" font-size="14.00" fill="#000000"> &#160;Exports</text>
<g id="clust1" class="cluster">
<title>cluster_LayoutModule</title>
<polygon fill="none" stroke="#000000" stroke-dasharray="1,5" points="8,-70 8,-268 623,-268 623,-70 8,-70"/>
</g>
<g id="clust2" class="cluster">
<title>cluster_LayoutModule_declarations</title>
<polygon fill="none" stroke="#000000" points="16,-78 16,-130 615,-130 615,-78 16,-78"/>
</g>
<g id="clust8" class="cluster">
<title>cluster_LayoutModule_exports</title>
<polygon fill="none" stroke="#000000" points="158,-208 158,-260 440,-260 440,-208 158,-208"/>
</g>
<!-- FooterComponent -->
<g id="node1" class="node">
<title>FooterComponent</title>
<polygon fill="#ffffb3" stroke="#000000" points="606.8809,-122 489.1191,-122 489.1191,-86 606.8809,-86 606.8809,-122"/>
<text text-anchor="middle" x="548" y="-99.8" font-family="Times,serif" font-size="14.00" fill="#000000">FooterComponent</text>
</g>
<!-- LayoutModule -->
<g id="node5" class="node">
<title>LayoutModule</title>
<polygon fill="#8dd3c7" stroke="#000000" points="349.7078,-187 346.7078,-191 325.7078,-191 322.7078,-187 250.2922,-187 250.2922,-151 349.7078,-151 349.7078,-187"/>
<text text-anchor="middle" x="300" y="-164.8" font-family="Times,serif" font-size="14.00" fill="#000000">LayoutModule</text>
</g>
<!-- FooterComponent&#45;&gt;LayoutModule -->
<g id="edge1" class="edge">
<title>FooterComponent&#45;&gt;LayoutModule</title>
<path fill="none" stroke="#000000" d="M548,-122.1061C548,-141.3391 548,-169 548,-169 548,-169 359.8882,-169 359.8882,-169"/>
<polygon fill="#000000" stroke="#000000" points="359.8882,-165.5001 349.8882,-169 359.8881,-172.5001 359.8882,-165.5001"/>
</g>
<!-- LanguageButtonComponent -->
<g id="node2" class="node">
<title>LanguageButtonComponent</title>
<polygon fill="#ffffb3" stroke="#000000" points="471.147,-122 296.853,-122 296.853,-86 471.147,-86 471.147,-122"/>
<text text-anchor="middle" x="384" y="-99.8" font-family="Times,serif" font-size="14.00" fill="#000000">LanguageButtonComponent</text>
</g>
<!-- LanguageButtonComponent&#45;&gt;LayoutModule -->
<g id="edge2" class="edge">
<title>LanguageButtonComponent&#45;&gt;LayoutModule</title>
<path fill="none" stroke="#000000" d="M323.1403,-122.1061C323.1403,-122.1061 323.1403,-140.991 323.1403,-140.991"/>
<polygon fill="#000000" stroke="#000000" points="319.6403,-140.9909 323.1403,-150.991 326.6403,-140.991 319.6403,-140.9909"/>
</g>
<!-- NavbarComponent -->
<g id="node3" class="node">
<title>NavbarComponent</title>
<polygon fill="#ffffb3" stroke="#000000" points="278.0297,-122 155.9703,-122 155.9703,-86 278.0297,-86 278.0297,-122"/>
<text text-anchor="middle" x="217" y="-99.8" font-family="Times,serif" font-size="14.00" fill="#000000">NavbarComponent</text>
</g>
<!-- NavbarComponent&#45;&gt;LayoutModule -->
<g id="edge3" class="edge">
<title>NavbarComponent&#45;&gt;LayoutModule</title>
<path fill="none" stroke="#000000" d="M264.3303,-122.1061C264.3303,-122.1061 264.3303,-140.991 264.3303,-140.991"/>
<polygon fill="#000000" stroke="#000000" points="260.8304,-140.9909 264.3303,-150.991 267.8304,-140.991 260.8304,-140.9909"/>
</g>
<!-- SidenavDirective -->
<g id="node4" class="node">
<title>SidenavDirective</title>
<polygon fill="#ffffb3" stroke="#000000" points="137.6854,-122 24.3146,-122 24.3146,-86 137.6854,-86 137.6854,-122"/>
<text text-anchor="middle" x="81" y="-99.8" font-family="Times,serif" font-size="14.00" fill="#000000">SidenavDirective</text>
</g>
<!-- SidenavDirective&#45;&gt;LayoutModule -->
<g id="edge4" class="edge">
<title>SidenavDirective&#45;&gt;LayoutModule</title>
<path fill="none" stroke="#000000" d="M81,-122.1061C81,-141.3391 81,-169 81,-169 81,-169 240.3055,-169 240.3055,-169"/>
<polygon fill="#000000" stroke="#000000" points="240.3055,-172.5001 250.3055,-169 240.3055,-165.5001 240.3055,-172.5001"/>
</g>
<!-- FooterComponent  -->
<g id="node6" class="node">
<title>FooterComponent </title>
<polygon fill="#fb8072" stroke="#000000" points="431.8814,-252 310.1186,-252 310.1186,-216 431.8814,-216 431.8814,-252"/>
<text text-anchor="middle" x="371" y="-229.8" font-family="Times,serif" font-size="14.00" fill="#000000">FooterComponent </text>
</g>
<!-- LayoutModule&#45;&gt;FooterComponent  -->
<g id="edge5" class="edge">
<title>LayoutModule&#45;&gt;FooterComponent </title>
<path fill="none" stroke="#000000" stroke-dasharray="5,2" d="M329.9567,-187.1061C329.9567,-187.1061 329.9567,-205.991 329.9567,-205.991"/>
<polygon fill="#000000" stroke="#000000" points="326.4568,-205.9909 329.9567,-215.991 333.4568,-205.991 326.4568,-205.9909"/>
</g>
<!-- NavbarComponent  -->
<g id="node7" class="node">
<title>NavbarComponent </title>
<polygon fill="#fb8072" stroke="#000000" points="292.0288,-252 165.9712,-252 165.9712,-216 292.0288,-216 292.0288,-252"/>
<text text-anchor="middle" x="229" y="-229.8" font-family="Times,serif" font-size="14.00" fill="#000000">NavbarComponent </text>
</g>
<!-- LayoutModule&#45;&gt;NavbarComponent  -->
<g id="edge6" class="edge">
<title>LayoutModule&#45;&gt;NavbarComponent </title>
<path fill="none" stroke="#000000" stroke-dasharray="5,2" d="M271.2053,-187.1061C271.2053,-187.1061 271.2053,-205.991 271.2053,-205.991"/>
<polygon fill="#000000" stroke="#000000" points="267.7054,-205.9909 271.2053,-215.991 274.7054,-205.991 267.7054,-205.9909"/>
</g>
</g>
</svg>
