<svg xmlns="http://www.w3.org/2000/svg" viewBox="0 0 585.8 100.731"><defs><style>.a{fill:#fff;}.b{fill:none;stroke:#fff;stroke-miterlimit:10;}</style></defs><g transform="translate(67.558 45.416)"><g transform="translate(317.386 0)"><path class="a" d="M956.3,112.4v.889h-1.253V116.6h-1.091v-3.313H952.7V112.4Z" transform="translate(-952.7 -112.4)"/><path class="a" d="M963.731,112.4l1.131,2.465,1.131-2.465h1.212v4.2h-.97v-2.667l-.97,2.263h-.727l-.97-2.263V116.6h-.97v-4.2Z" transform="translate(-958.6 -112.4)"/></g><g transform="translate(35.719 6.465)"><path class="a" d="M277.419,136.6V151.27h-7.313v-2.546c-1.455,1.859-3.758,2.869-6.788,2.869-4.849,0-7.717-2.909-7.717-7.031,0-4.283,3.03-6.748,8.647-6.829h5.859v-.242c0-2.141-1.455-3.394-4.283-3.394a16.465,16.465,0,0,0-6.748,1.778l-2.061-5.01A25,25,0,0,1,267.52,128.4C273.783,128.44,277.379,131.43,277.419,136.6Zm-7.273,7.031v-1.939h-4.4c-2.1,0-3.111.768-3.111,2.344,0,1.535,1.131,2.546,3.03,2.546A4.512,4.512,0,0,0,270.146,143.633Z" transform="translate(-255.6 -128.4)"/></g><g transform="translate(75.922 1.939)"><path class="a" d="M368.757,143.666a12.293,12.293,0,0,1-6.1,1.5c-4.364.04-7.556-2.546-7.556-7.192V117.2h7.394v6.182h5.818v5.334h-5.818V136.8c0,1.657.768,2.424,2.061,2.384a7.282,7.282,0,0,0,2.788-.768Z" transform="translate(-355.1 -117.2)"/></g><g transform="translate(59.517 6.748)"><path class="a" d="M329.167,129.1v6.788c-4.121-.4-6.869,1.414-7.233,4.525v11.516H314.5V129.383h7.435v3.758A8.082,8.082,0,0,1,329.167,129.1Z" transform="translate(-314.5 -129.1)"/></g><g transform="translate(90.913 7.515)"><path class="a" d="M414.868,131v22.546h-7.435v-3.677a7.938,7.938,0,0,1-7.192,4c-4.889,0-8.041-3.394-8.041-8.647V131h7.435v12.122c0,2.546,1.414,4.081,3.637,4.081,2.626-.04,4.2-2.141,4.2-5.091V131Z" transform="translate(-392.2 -131)"/></g><g transform="translate(21.577 1.899)"><path class="a" d="M220.6,117.1h7.394v6.182h5.818v5.374h-5.818V136.7c0,1.657.768,2.424,2.061,2.384a7.282,7.282,0,0,0,2.788-.768l1.414,5.253a12.293,12.293,0,0,1-6.1,1.5c-4.364.04-7.556-2.546-7.556-7.192Z" transform="translate(-220.6 -117.1)"/></g><g transform="translate(115.641 7.354)"><path class="a" d="M477.967,142.237c0,6.869-4.081,11.435-10.344,11.435a8.293,8.293,0,0,1-6.788-3.152v10.95H453.4V130.842h7.435v2.909a7.98,7.98,0,0,1,6.627-3.152C473.764,130.6,477.967,135.247,477.967,142.237Zm-7.475-.162c0-3.354-1.939-5.616-4.889-5.616-2.828,0-4.808,2.3-4.808,5.616,0,3.354,1.939,5.576,4.808,5.576C468.552,147.651,470.492,145.388,470.492,142.075Z" transform="translate(-453.4 -130.6)"/></g><path class="a" d="M167.2,147.2l2.99-4.849a14.84,14.84,0,0,0,7.839,2.626c1.374,0,2.02-.4,2.02-1.212v-.081c0-.889-1.253-1.253-3.677-1.939-4.525-1.172-8.081-2.707-8.081-7.313v-.081c0-4.849,3.879-7.556,9.132-7.556a17.873,17.873,0,0,1,9.414,2.667l-2.748,5.051a15.508,15.508,0,0,0-6.748-2.1c-1.212,0-1.859.444-1.859,1.091v.081c0,.889,1.293,1.293,3.717,2.02,4.525,1.253,8.081,2.828,8.081,7.233v.081c0,5.01-3.758,7.637-9.334,7.637A17.846,17.846,0,0,1,167.2,147.2Z" transform="translate(-167.2 -120.982)"/><g transform="translate(171.4 6.505)"><path class="a" d="M614.835,142.157H598.956a5.1,5.1,0,0,0,5.172,4,7.714,7.714,0,0,0,5.374-2.3l3.919,3.919c-2.3,2.626-5.738,4.041-9.94,4.041-7.475,0-12.081-4.606-12.081-11.556,0-7.071,4.768-11.758,11.92-11.758C611.28,128.5,615.32,133.874,614.835,142.157Zm-7.273-4a4.086,4.086,0,0,0-4.2-4.4c-2.465,0-4.041,1.778-4.566,4.4Z" transform="translate(-591.4 -128.5)"/></g><g transform="translate(195.927 6.505)"><path class="a" d="M675.535,142.157H659.656a5.1,5.1,0,0,0,5.172,4,7.714,7.714,0,0,0,5.374-2.3l3.919,3.919c-2.3,2.626-5.738,4.041-9.94,4.041-7.475,0-12.081-4.606-12.081-11.556,0-7.071,4.768-11.758,11.92-11.758C672.02,128.5,676.061,133.874,675.535,142.157Zm-7.233-4a4.086,4.086,0,0,0-4.2-4.4c-2.465,0-4.041,1.778-4.566,4.4Z" transform="translate(-652.1 -128.5)"/></g><path class="a" d="M735.683,120.117h-9.091l-5.576,6.344V112.4H713.5v29.86h7.515V134.1l5.859,7.839h8.364l-8.364-11.6Z" transform="translate(-492.764 -112.4)"/><g transform="translate(240.292 6.788)"><path class="a" d="M785.335,142.857H769.456a5.1,5.1,0,0,0,5.172,4,7.714,7.714,0,0,0,5.374-2.3l3.919,3.919c-2.3,2.626-5.738,4.041-9.94,4.041-7.475,0-12.081-4.606-12.081-11.556,0-7.071,4.768-11.758,11.92-11.758C781.78,129.159,785.861,134.533,785.335,142.857Zm-7.273-4a4.086,4.086,0,0,0-4.2-4.4c-2.465,0-4.041,1.778-4.566,4.4Z" transform="translate(-761.9 -129.199)"/></g><g transform="translate(265.222 7.03)"><path class="a" d="M846.955,138.487v14.384h-7.475V140.628c0-2.586-1.535-4.162-3.879-4.162-2.546.04-4.162,1.778-4.485,4.364v12.081H823.6V130.082h7.515V133.8a8.357,8.357,0,0,1,7.556-4C843.641,129.759,846.955,133.113,846.955,138.487Z" transform="translate(-823.6 -129.799)"/></g><g transform="translate(290.112)"><path class="a" d="M910.09,112.4v30.1h-7.515v-2.95a8.061,8.061,0,0,1-6.748,3.232c-6.424,0-10.627-4.727-10.627-11.8,0-6.95,4.162-11.556,10.465-11.556a8.371,8.371,0,0,1,6.909,3.232V112.4Zm-7.515,18.789c0-3.434-1.98-5.7-4.889-5.7-2.95,0-4.93,2.3-4.93,5.7s1.98,5.7,4.93,5.7C900.595,136.886,902.574,134.583,902.574,131.189Z" transform="translate(-885.2 -112.4)"/></g><path class="a" d="M511.5,131.2h7.8l2.748,10.505,2.586-10.505h7.152l2.626,10.586,2.828-10.586h7.677l-6.748,22.021h-6.909l-3.03-11.839-3.152,11.839h-6.869Z" transform="translate(-372.384 -123.604)"/><g transform="translate(126.752 43.557)"><g transform="translate(100.448 0.323)"><path class="a" d="M733.056,224.273H731.52v5.334h-.929v-5.334H729.5v-.4l1.091-.323v-.323c0-1.5.647-2.222,1.939-2.222a4.473,4.473,0,0,1,1.131.2l-.242.727a2.769,2.769,0,0,0-.889-.162.841.841,0,0,0-.768.364,1.984,1.984,0,0,0-.242,1.091v.4h1.535Z" transform="translate(-729.5 -221)"/><path class="a" d="M744.836,230.271a3.422,3.422,0,0,1-.727,2.3,2.566,2.566,0,0,1-2.061.849,2.989,2.989,0,0,1-1.455-.364,2.569,2.569,0,0,1-.97-1.091,3.681,3.681,0,0,1-.323-1.657,3.422,3.422,0,0,1,.727-2.3,2.927,2.927,0,0,1,4.081.04A3.409,3.409,0,0,1,744.836,230.271Zm-4.606,0a3.115,3.115,0,0,0,.444,1.778,1.86,1.86,0,0,0,2.748,0,2.823,2.823,0,0,0,.485-1.778,2.7,2.7,0,0,0-.485-1.737,1.86,1.86,0,0,0-2.748,0A2.7,2.7,0,0,0,740.229,230.271Z" transform="translate(-735.34 -224.695)"/><path class="a" d="M758.748,227.1a3.623,3.623,0,0,1,.727.081l-.121.849a4.663,4.663,0,0,0-.646-.081,1.626,1.626,0,0,0-1.253.606,2.116,2.116,0,0,0-.525,1.5v3.232H756v-6.061h.768l.121,1.131h.04a3.051,3.051,0,0,1,.808-.929A1.675,1.675,0,0,1,758.748,227.1Z" transform="translate(-745.293 -224.635)"/><path class="a" d="M778.985,230.381H774.5V222.3h4.485v.849h-3.556v2.586h3.354v.808h-3.354v2.99h3.556Z" transform="translate(-756.318 -221.775)"/><path class="a" d="M792.521,233.242v-3.919a1.672,1.672,0,0,0-.323-1.091,1.381,1.381,0,0,0-1.051-.364,1.608,1.608,0,0,0-1.374.525,2.591,2.591,0,0,0-.444,1.7v3.192H788.4v-6.061h.727l.162.808h.04a1.938,1.938,0,0,1,.808-.687,2.581,2.581,0,0,1,1.131-.242,2.269,2.269,0,0,1,1.657.525,2.318,2.318,0,0,1,.566,1.7v3.96h-.97Z" transform="translate(-764.601 -224.635)"/><path class="a" d="M805.407,230.688a1.967,1.967,0,0,0,.485-.04,2.576,2.576,0,0,0,.364-.081v.687a2.143,2.143,0,0,1-.444.121,2.486,2.486,0,0,1-.525.04c-1.172,0-1.737-.606-1.737-1.859v-3.6H802.7v-.4l.849-.364.4-1.293h.525v1.414h1.737v.727h-1.778V229.6a1.326,1.326,0,0,0,.242.849A1.128,1.128,0,0,0,805.407,230.688Z" transform="translate(-773.123 -222.728)"/><path class="a" d="M816.448,227.1a3.624,3.624,0,0,1,.727.081l-.121.849a4.662,4.662,0,0,0-.646-.081,1.626,1.626,0,0,0-1.253.606,2.116,2.116,0,0,0-.525,1.5v3.232H813.7v-6.061h.768l.121,1.131h.04a3.053,3.053,0,0,1,.808-.929A1.768,1.768,0,0,1,816.448,227.1Z" transform="translate(-779.679 -224.635)"/><path class="a" d="M826.069,233.363a2.768,2.768,0,0,1-2.1-.808,3.076,3.076,0,0,1-.768-2.263,3.61,3.61,0,0,1,.727-2.344,2.426,2.426,0,0,1,1.939-.849,2.242,2.242,0,0,1,1.818.768,2.854,2.854,0,0,1,.646,1.98v.566H824.17a2.347,2.347,0,0,0,.525,1.616,1.855,1.855,0,0,0,1.455.566,4.775,4.775,0,0,0,1.94-.4V233a4.8,4.8,0,0,1-.929.283A8.6,8.6,0,0,1,826.069,233.363Zm-.242-5.5a1.494,1.494,0,0,0-1.172.485,2.51,2.51,0,0,0-.525,1.333h3.152a1.95,1.95,0,0,0-.4-1.333A1.155,1.155,0,0,0,825.826,227.868Z" transform="translate(-785.34 -224.635)"/><path class="a" d="M841.528,233.363a3.085,3.085,0,0,1-1.091-.2,1.9,1.9,0,0,1-.808-.687h-.081a9.233,9.233,0,0,1,.081,1.01v2.505H838.7v-8.768h.727l.121.808h.04a2.7,2.7,0,0,1,.808-.727,2.394,2.394,0,0,1,1.091-.2,2.3,2.3,0,0,1,1.859.808,3.628,3.628,0,0,1,.646,2.3,3.479,3.479,0,0,1-.646,2.3A2.188,2.188,0,0,1,841.528,233.363Zm-.162-5.5a1.574,1.574,0,0,0-1.333.525,2.755,2.755,0,0,0-.444,1.616v.2a2.994,2.994,0,0,0,.444,1.818,1.625,1.625,0,0,0,1.374.566,1.338,1.338,0,0,0,1.212-.646,3.064,3.064,0,0,0,.444-1.737,2.973,2.973,0,0,0-.444-1.737A1.415,1.415,0,0,0,841.367,227.868Z" transform="translate(-794.577 -224.635)"/><path class="a" d="M857.648,227.1a3.624,3.624,0,0,1,.727.081l-.121.849a4.66,4.66,0,0,0-.646-.081,1.626,1.626,0,0,0-1.253.606,2.116,2.116,0,0,0-.525,1.5v3.232H854.9v-6.061h.768l.121,1.131h.04a3.052,3.052,0,0,1,.808-.929A1.767,1.767,0,0,1,857.648,227.1Z" transform="translate(-804.232 -224.635)"/><path class="a" d="M867.269,233.363a2.768,2.768,0,0,1-2.1-.808,3.075,3.075,0,0,1-.768-2.263,3.61,3.61,0,0,1,.727-2.344,2.426,2.426,0,0,1,1.939-.849,2.242,2.242,0,0,1,1.818.768,2.854,2.854,0,0,1,.646,1.98v.566H865.37a2.347,2.347,0,0,0,.525,1.616,1.855,1.855,0,0,0,1.455.566,4.774,4.774,0,0,0,1.939-.4V233a4.8,4.8,0,0,1-.929.283A8.606,8.606,0,0,1,867.269,233.363Zm-.242-5.5a1.5,1.5,0,0,0-1.172.485,2.51,2.51,0,0,0-.525,1.333h3.152a1.95,1.95,0,0,0-.4-1.333A1.155,1.155,0,0,0,867.026,227.868Z" transform="translate(-809.893 -224.635)"/><path class="a" d="M884.021,233.242v-3.919a1.672,1.672,0,0,0-.323-1.091,1.381,1.381,0,0,0-1.05-.364,1.608,1.608,0,0,0-1.374.525,2.592,2.592,0,0,0-.444,1.7v3.192H879.9v-6.061h.727l.162.808h.04a1.938,1.938,0,0,1,.808-.687,2.581,2.581,0,0,1,1.131-.242,2.27,2.27,0,0,1,1.657.525,2.318,2.318,0,0,1,.566,1.7v3.96h-.97Z" transform="translate(-819.13 -224.635)"/><path class="a" d="M898.169,233.363a2.768,2.768,0,0,1-2.1-.808,3.075,3.075,0,0,1-.768-2.263,3.61,3.61,0,0,1,.727-2.344,2.426,2.426,0,0,1,1.939-.849,2.242,2.242,0,0,1,1.818.768,2.854,2.854,0,0,1,.646,1.98v.566H896.27a2.347,2.347,0,0,0,.525,1.616,1.855,1.855,0,0,0,1.455.566,4.773,4.773,0,0,0,1.939-.4V233a4.8,4.8,0,0,1-.929.283A8.056,8.056,0,0,1,898.169,233.363Zm-.242-5.5a1.5,1.5,0,0,0-1.172.485,2.51,2.51,0,0,0-.525,1.333h3.152a1.95,1.95,0,0,0-.4-1.333A1.155,1.155,0,0,0,897.926,227.868Z" transform="translate(-828.308 -224.635)"/><path class="a" d="M911.529,227.34v3.919a1.672,1.672,0,0,0,.323,1.091,1.381,1.381,0,0,0,1.05.364,1.608,1.608,0,0,0,1.374-.525,2.751,2.751,0,0,0,.444-1.7V227.3h.929v6.061h-.768l-.121-.808h-.04a2.1,2.1,0,0,1-.768.687,2.581,2.581,0,0,1-1.131.242,1.943,1.943,0,0,1-2.222-2.222V227.3h.929Z" transform="translate(-837.425 -224.754)"/><path class="a" d="M929.648,227.1a3.624,3.624,0,0,1,.727.081l-.121.849a4.658,4.658,0,0,0-.646-.081,1.626,1.626,0,0,0-1.253.606,2.116,2.116,0,0,0-.525,1.5v3.232H926.9v-6.061h.768l.121,1.131h.04a3.05,3.05,0,0,1,.808-.929A1.767,1.767,0,0,1,929.648,227.1Z" transform="translate(-847.14 -224.635)"/><path class="a" d="M941.123,231.566a1.427,1.427,0,0,1-.646,1.293,2.828,2.828,0,0,1-1.778.444,3.886,3.886,0,0,1-1.859-.364v-.849a3.7,3.7,0,0,0,.929.364,3.986,3.986,0,0,0,.97.121,1.983,1.983,0,0,0,1.091-.242.833.833,0,0,0,.4-.687.767.767,0,0,0-.323-.606,5.4,5.4,0,0,0-1.212-.606,5.8,5.8,0,0,1-1.212-.566,1.626,1.626,0,0,1-.525-.525,1.384,1.384,0,0,1-.162-.727,1.369,1.369,0,0,1,.606-1.172,2.875,2.875,0,0,1,1.657-.444,4.461,4.461,0,0,1,1.9.4l-.323.727a4.564,4.564,0,0,0-1.657-.364,1.928,1.928,0,0,0-.97.2.645.645,0,0,0-.323.566.683.683,0,0,0,.121.4.844.844,0,0,0,.4.323,8.026,8.026,0,0,0,1.051.444,3.349,3.349,0,0,1,1.455.808A1.431,1.431,0,0,1,941.123,231.566Z" transform="translate(-853.039 -224.576)"/></g><g transform="translate(0 0.283)"><path class="a" d="M486.032,224.744a2.291,2.291,0,0,1-.849,1.9,3.8,3.8,0,0,1-2.384.646h-.97v3.192H480.9V222.4H483C485.021,222.4,486.032,223.168,486.032,224.744Zm-4.2,1.737h.849a3.107,3.107,0,0,0,1.818-.4,1.513,1.513,0,0,0,.566-1.293,1.431,1.431,0,0,0-.525-1.212,2.874,2.874,0,0,0-1.616-.4H481.87v3.313Z" transform="translate(-480.9 -221.794)"/><path class="a" d="M500.936,230.271a3.422,3.422,0,0,1-.727,2.3,2.566,2.566,0,0,1-2.061.849,2.989,2.989,0,0,1-1.455-.364,2.569,2.569,0,0,1-.97-1.091,3.681,3.681,0,0,1-.323-1.657,3.422,3.422,0,0,1,.727-2.3,2.927,2.927,0,0,1,4.081.04A3.409,3.409,0,0,1,500.936,230.271Zm-4.647,0a3.115,3.115,0,0,0,.444,1.778,1.86,1.86,0,0,0,2.748,0,2.823,2.823,0,0,0,.485-1.778,2.7,2.7,0,0,0-.485-1.737,1.86,1.86,0,0,0-2.748,0A2.973,2.973,0,0,0,496.289,230.271Z" transform="translate(-489.541 -224.654)"/><path class="a" d="M515.778,233.361l-1.091-3.556c-.081-.2-.2-.727-.4-1.495h-.04c-.162.646-.283,1.131-.4,1.495l-1.131,3.556h-1.051L510,227.3h.97c.4,1.535.687,2.667.889,3.475s.323,1.333.364,1.616h.04c.04-.2.121-.485.2-.808a6.746,6.746,0,0,1,.242-.808L513.8,227.3h1.01l1.091,3.475a9.023,9.023,0,0,1,.4,1.576h.04a2.57,2.57,0,0,1,.121-.606c.081-.283.444-1.778,1.131-4.445h.929l-1.657,6.061Z" transform="translate(-498.242 -224.714)"/><path class="a" d="M534.969,233.363a2.768,2.768,0,0,1-2.1-.808,3.076,3.076,0,0,1-.768-2.263,3.61,3.61,0,0,1,.727-2.344,2.426,2.426,0,0,1,1.939-.849,2.242,2.242,0,0,1,1.818.768,2.854,2.854,0,0,1,.646,1.98v.566H533.07a2.347,2.347,0,0,0,.525,1.616,1.855,1.855,0,0,0,1.455.566,4.774,4.774,0,0,0,1.939-.4V233a4.8,4.8,0,0,1-.929.283A9.216,9.216,0,0,1,534.969,233.363Zm-.242-5.5a1.5,1.5,0,0,0-1.172.485,2.51,2.51,0,0,0-.525,1.333h3.152a1.95,1.95,0,0,0-.4-1.333A1.2,1.2,0,0,0,534.726,227.868Z" transform="translate(-511.412 -224.595)"/><path class="a" d="M550.348,227.1a3.624,3.624,0,0,1,.727.081l-.121.849a4.662,4.662,0,0,0-.646-.081,1.626,1.626,0,0,0-1.253.606,2.116,2.116,0,0,0-.525,1.5v3.232H547.6v-6.061h.768l.121,1.131h.04a3.052,3.052,0,0,1,.808-.929A1.767,1.767,0,0,1,550.348,227.1Z" transform="translate(-520.65 -224.595)"/><path class="a" d="M559.969,233.363a2.768,2.768,0,0,1-2.1-.808,3.075,3.075,0,0,1-.768-2.263,3.61,3.61,0,0,1,.727-2.344,2.426,2.426,0,0,1,1.939-.849,2.242,2.242,0,0,1,1.818.768,2.854,2.854,0,0,1,.646,1.98v.566H558.07a2.347,2.347,0,0,0,.525,1.616,1.855,1.855,0,0,0,1.455.566,4.774,4.774,0,0,0,1.939-.4V233a4.8,4.8,0,0,1-.929.283A8.605,8.605,0,0,1,559.969,233.363Zm-.242-5.5a1.5,1.5,0,0,0-1.172.485,2.51,2.51,0,0,0-.525,1.333h3.152a1.95,1.95,0,0,0-.4-1.333A1.154,1.154,0,0,0,559.726,227.868Z" transform="translate(-526.311 -224.595)"/><path class="a" d="M576.345,228.8h-.04a2.149,2.149,0,0,1-1.9.929,2.3,2.3,0,0,1-1.859-.808,3.479,3.479,0,0,1-.646-2.3,3.675,3.675,0,0,1,.646-2.344,2.184,2.184,0,0,1,1.859-.808,2.215,2.215,0,0,1,1.9.889h.081l-.04-.444-.04-.444V221h.929v8.606h-.727Zm-1.818.162a1.659,1.659,0,0,0,1.374-.525,2.559,2.559,0,0,0,.4-1.657v-.2a2.994,2.994,0,0,0-.444-1.818,1.625,1.625,0,0,0-1.374-.566,1.449,1.449,0,0,0-1.253.646,3.115,3.115,0,0,0-.444,1.778,2.886,2.886,0,0,0,.444,1.737A1.537,1.537,0,0,0,574.526,228.96Z" transform="translate(-535.131 -220.96)"/><path class="a" d="M599.428,223.405a2.3,2.3,0,0,1,1.859.808,4.425,4.425,0,0,1,0,4.606,2.184,2.184,0,0,1-1.859.808,3.085,3.085,0,0,1-1.091-.2,1.9,1.9,0,0,1-.808-.687h-.081l-.2.768H596.6V220.9h.929V223a11.767,11.767,0,0,1-.04,1.253h.04A2.3,2.3,0,0,1,599.428,223.405Zm-.162.768a1.525,1.525,0,0,0-1.333.525,4.109,4.109,0,0,0,.04,3.637,1.625,1.625,0,0,0,1.374.566,1.415,1.415,0,0,0,1.253-.606,4.114,4.114,0,0,0,0-3.556A1.649,1.649,0,0,0,599.267,224.173Z" transform="translate(-549.851 -220.9)"/><path class="a" d="M610.4,227.34h.97l1.333,3.434a10.055,10.055,0,0,1,.525,1.7h.04c.04-.2.162-.525.283-.97.162-.444.646-1.859,1.495-4.2h.97l-2.586,6.909a3.456,3.456,0,0,1-.889,1.455,1.975,1.975,0,0,1-1.253.444,4.974,4.974,0,0,1-.808-.081v-.768a3.558,3.558,0,0,0,.687.081,1.362,1.362,0,0,0,1.333-1.051l.323-.849Z" transform="translate(-558.075 -224.714)"/></g><g transform="translate(61.214)"><path class="a" d="M632.4,224.766a4.622,4.622,0,0,1,4.606-4.566,4.244,4.244,0,0,1,3.111,1.253l-.889.889a3.231,3.231,0,0,0-2.263-.889,3.314,3.314,0,0,0,0,6.627,3.068,3.068,0,0,0,2.3-.929,2.489,2.489,0,0,0,.687-1.576h-2.99v-1.253h4.2a4.469,4.469,0,0,1,.081.768A3.994,3.994,0,0,1,640.158,228a4.139,4.139,0,0,1-3.192,1.293A4.579,4.579,0,0,1,632.4,224.766Z" transform="translate(-632.4 -220.2)"/><path class="a" d="M658.45,228.2a2.95,2.95,0,1,0,2.95,2.95A2.915,2.915,0,0,0,658.45,228.2Zm0,4.727a1.782,1.782,0,1,1,1.657-1.778A1.694,1.694,0,0,1,658.45,232.927Z" transform="translate(-646.166 -224.968)"/><path class="a" d="M674.35,228.2a2.95,2.95,0,1,0,2.95,2.95A2.915,2.915,0,0,0,674.35,228.2Zm0,4.727a1.782,1.782,0,1,1,1.657-1.778A1.694,1.694,0,0,1,674.35,232.927Z" transform="translate(-655.642 -224.968)"/><path class="a" d="M691.7,228.462v.485h-.04a1.954,1.954,0,0,0-1.535-.646,2.944,2.944,0,0,0-2.828,2.95,2.881,2.881,0,0,0,2.828,2.909,1.974,1.974,0,0,0,1.535-.687h.04v.4c0,1.131-.606,1.737-1.576,1.737a1.623,1.623,0,0,1-1.495-1.051l-1.131.485a2.8,2.8,0,0,0,2.586,1.737c1.495,0,2.788-.889,2.788-3.071v-5.253Zm-1.495,4.525a1.791,1.791,0,1,1,1.576-1.778A1.663,1.663,0,0,1,690.209,232.987Z" transform="translate(-665.117 -225.027)"/><rect class="a" width="1.293" height="8.647" transform="translate(28.688 0.283)"/><path class="a" d="M711.109,232.987a1.449,1.449,0,0,1-1.414-.889l3.919-1.616-.121-.323a2.706,2.706,0,0,0-2.505-1.859,2.808,2.808,0,0,0-2.788,2.95,2.881,2.881,0,0,0,2.909,2.95,2.959,2.959,0,0,0,2.465-1.293l-1.01-.687A1.815,1.815,0,0,1,711.109,232.987Zm-.121-3.6a1.136,1.136,0,0,1,1.091.606l-2.626,1.091A1.6,1.6,0,0,1,710.988,229.391Z" transform="translate(-677.573 -225.027)"/></g></g></g><g transform="translate(69.457 24.607)"><path class="a" d="M171.9,77.657A5.5,5.5,0,0,1,177.638,72,4.85,4.85,0,0,1,182,74.182l-1.131.768a3.762,3.762,0,0,0-3.232-1.657,4.325,4.325,0,0,0,0,8.647,3.823,3.823,0,0,0,3.232-1.616l1.131.768a4.85,4.85,0,0,1-4.364,2.182A5.442,5.442,0,0,1,171.9,77.657Z" transform="translate(-171.9 -67.515)"/><path class="a" d="M199.6,77.657a5.657,5.657,0,1,1,5.657,5.657A5.477,5.477,0,0,1,199.6,77.657Zm9.819,0A4.145,4.145,0,1,0,205.3,81.98,4.045,4.045,0,0,0,209.419,77.657Z" transform="translate(-188.408 -67.515)"/><path class="a" d="M231.1,77.657A5.5,5.5,0,0,1,236.838,72a4.85,4.85,0,0,1,4.364,2.182l-1.131.768a3.762,3.762,0,0,0-3.232-1.657,4.325,4.325,0,0,0,0,8.647,3.823,3.823,0,0,0,3.232-1.616l1.131.768a4.85,4.85,0,0,1-4.364,2.182A5.442,5.442,0,0,1,231.1,77.657Z" transform="translate(-207.18 -67.515)"/><path class="a" d="M271.923,70.153v6.465h-1.5V70.274c0-2.344-1.212-3.556-3.354-3.556a3.642,3.642,0,0,0-3.879,4v5.818H261.7V60.9h1.495v6.505a4.688,4.688,0,0,1,4.162-2.02C270.064,65.385,271.923,66.961,271.923,70.153Z" transform="translate(-225.416 -60.9)"/><path class="a" d="M302.774,76.323v6.909H301.32V81.5a4.219,4.219,0,0,1-3.839,1.859c-2.505,0-4.081-1.293-4.081-3.232,0-1.7,1.091-3.152,4.283-3.152H301.2v-.687c0-1.9-1.091-2.95-3.152-2.95a5.909,5.909,0,0,0-3.717,1.293l-.687-1.131a7.012,7.012,0,0,1,4.525-1.5C301.117,72,302.774,73.414,302.774,76.323Zm-1.535,3.556V78.061h-3.475c-2.141,0-2.869.849-2.869,1.98,0,1.293,1.051,2.1,2.828,2.1A3.516,3.516,0,0,0,301.239,79.879Z" transform="translate(-244.307 -67.515)"/><path class="a" d="M336.673,71.042a5.4,5.4,0,0,1-5.536,5.657,4.77,4.77,0,0,1-4.283-2.3v2.182H325.4V60.9h1.5v6.667a4.826,4.826,0,0,1,4.243-2.182A5.379,5.379,0,0,1,336.673,71.042Zm-1.535,0a4.165,4.165,0,1,0-4.162,4.323A4.076,4.076,0,0,0,335.138,71.042Z" transform="translate(-263.377 -60.9)"/><path class="a" d="M366.374,76.323v6.909h-1.455V81.5a4.219,4.219,0,0,1-3.839,1.859c-2.505,0-4.081-1.293-4.081-3.232,0-1.7,1.091-3.152,4.283-3.152H364.8v-.687c0-1.9-1.091-2.95-3.152-2.95a5.909,5.909,0,0,0-3.717,1.293l-.687-1.131a7.012,7.012,0,0,1,4.525-1.5C364.717,72,366.374,73.414,366.374,76.323Zm-1.535,3.556V78.061h-3.475c-2.141,0-2.869.849-2.869,1.98,0,1.293,1.051,2.1,2.828,2.1A3.516,3.516,0,0,0,364.839,79.879Z" transform="translate(-282.209 -67.515)"/><path class="a" d="M407.344,76.768v6.465h-1.495V76.889c0-2.344-1.172-3.556-3.192-3.556-2.3,0-3.717,1.5-3.717,4v5.818h-1.495V76.889c0-2.344-1.172-3.556-3.232-3.556-2.263,0-3.717,1.5-3.717,4v5.818H389V72.081h1.455V74.1a4.472,4.472,0,0,1,4.081-2.1,3.977,3.977,0,0,1,3.96,2.344A4.811,4.811,0,0,1,402.9,72C405.566,72,407.344,73.576,407.344,76.768Z" transform="translate(-301.28 -67.515)"/><path class="a" d="M454.473,71.042a5.4,5.4,0,0,1-5.536,5.657,4.77,4.77,0,0,1-4.283-2.3v2.182H443.2V60.9H444.7v6.667a4.826,4.826,0,0,1,4.243-2.182A5.379,5.379,0,0,1,454.473,71.042Zm-1.495,0a4.165,4.165,0,1,0-4.162,4.323A4.076,4.076,0,0,0,452.978,71.042Z" transform="translate(-333.58 -60.9)"/><path class="a" d="M484.174,76.323v6.909H482.72V81.5a4.219,4.219,0,0,1-3.839,1.859c-2.505,0-4.081-1.293-4.081-3.232,0-1.7,1.091-3.152,4.283-3.152H482.6v-.687c0-1.9-1.091-2.95-3.152-2.95a5.909,5.909,0,0,0-3.717,1.293l-.687-1.131a7.012,7.012,0,0,1,4.525-1.5C482.558,72,484.174,73.414,484.174,76.323Zm-1.5,3.556V78.061H479.2c-2.142,0-2.869.849-2.869,1.98,0,1.293,1.051,2.1,2.828,2.1A3.587,3.587,0,0,0,482.679,79.879Z" transform="translate(-352.411 -67.515)"/></g><g transform="translate(434.926 1.455)"><g transform="translate(13.819)"><g transform="translate(0 25.132)"><path class="a" d="M1151.975,96.549l6.384-20.486L1145.066,65.8,1110.6,99.619h37.012l4.364-2.99Z" transform="translate(-1110.6 -65.8)"/><path class="a" d="M1299.134,65.9,1285.8,76.123l6.424,20.566,4.323,2.99H1333.6Z" transform="translate(-1215.009 -65.86)"/></g><g transform="translate(37.011)"><path class="a" d="M1248.454,17.1h-14.061l-4.566-13.5-4.566,13.5H1211.2l11.273,8.647L1218.311,39l11.516-7.879L1241.343,39l-4.121-13.253Z" transform="translate(-1207.563 -3.6)"/><path class="a" d="M1224.5,111.84l-.04-.04L1202.2,127.033h44.527Z" transform="translate(-1202.2 -68.081)"/></g></g><g transform="translate(0 63.76)"><path class="a" d="M1076.4,179.06v-2.141h3.637v-4.647l2.707-1.172v5.818h4.566v2.141H1082.7v14.506c0,2.99.323,3.717,2.465,3.717a14.7,14.7,0,0,0,2.1-.121v2.344c-.808.081-1.7.121-2.546.121-3.636,0-4.687-1.616-4.687-4.4v-16.2H1076.4Z" transform="translate(-1076.4 -167.181)"/><path class="a" d="M1113.507,196.683v1.737c0,3.152.849,7.313,5.091,7.313,3.354,0,5.01-2.141,4.97-5.212h2.828c-.323,5.455-3.273,7.354-7.8,7.354-3.919,0-7.8-1.576-7.8-8.445v-5.5c0-6.546,2.748-9.536,7.8-9.536,7.8,0,7.8,5.616,7.8,12.324h-12.889Zm10.182-2.141c0-5.01-.808-8.041-5.091-8.041s-5.091,2.99-5.091,8.041Z" transform="translate(-1096.9 -175.107)"/><path class="a" d="M1170.052,191.19c.121-2.828-.889-4.808-4-4.808a3.755,3.755,0,0,0-3.636,2.586,30.459,30.459,0,0,0-.646,7.111c0,4.081,0,9.5,4.162,9.5,3.556,0,4-2.222,4.121-4.97h2.707c.242,6.1-4.081,7.111-6.182,7.111-7.677,0-7.677-6.061-7.677-11.637,0-2.222.081-5.778.687-7.475,1.172-3.232,3.717-4.4,6.828-4.4,3.919,0,6.546,2.182,6.3,6.95h-2.667Z" transform="translate(-1125.565 -174.988)"/><path class="a" d="M1204.7,193.765V161.4h2.707v12.526h.081a6.476,6.476,0,0,1,5.455-3.232c5.616,0,6.182,4.162,6.182,7.111v15.96h-2.707V177.926c0-2.626-1.051-5.091-4.162-5.091-2.424,0-4.889,1.657-4.889,6.707v14.223Z" transform="translate(-1152.86 -161.4)"/><path class="a" d="M1258.787,207.856c-4.889,0-6.829-2.384-6.788-7.192h2.748c0,3.111.727,5.172,4.162,5.172,2.586,0,3.839-1.5,3.839-4,0-5.9-10.182-4.4-10.182-11.879,0-4.162,2.869-5.657,6.829-5.657,4.485,0,5.9,3.111,5.9,6.546h-2.626c-.121-2.869-.889-4.4-3.96-4.4a3.2,3.2,0,0,0-3.434,3.273c0,5.657,10.182,4.121,10.182,11.718C1265.454,205.715,1262.989,207.856,1258.787,207.856Z" transform="translate(-1181.047 -175.047)"/><path class="a" d="M1292.1,179.06v-2.141h3.636v-4.647l2.707-1.172v5.818h4.566v2.141h-4.566v14.506c0,2.99.323,3.717,2.465,3.717a14.7,14.7,0,0,0,2.1-.121v2.344c-.808.081-1.7.121-2.546.121-3.636,0-4.687-1.616-4.687-4.4v-16.2H1292.1Z" transform="translate(-1204.945 -167.181)"/><path class="a" d="M1338.128,204.684h-.081a7.283,7.283,0,0,1-6.424,3.232c-4.041,0-6.222-2.748-6.222-6.667,0-7.919,7.96-7.111,12.566-7.475v-1.9c0-3.313-.97-5.334-4.566-5.334-2.465,0-4.444,1.212-4.444,3.919h-2.869c.242-4.364,3.6-6.061,7.515-6.061,2.3,0,7.031.242,7.031,6.02v11.394a46.219,46.219,0,0,0,.283,5.7h-2.788Zm-.2-8.768c-3.839.121-9.7-.323-9.7,5.212,0,2.546,1.293,4.647,4.081,4.647a5.816,5.816,0,0,0,5.616-5.738Z" transform="translate(-1224.79 -175.107)"/><path class="a" d="M1379.207,187.815h.081a6.939,6.939,0,0,1,6.223-3.515v2.748c-3.8-.323-6.3,1.98-6.3,5.778v14.586H1376.5V184.785h2.707Z" transform="translate(-1255.243 -175.047)"/><path class="a" d="M1411.187,207.856c-4.889,0-6.828-2.384-6.788-7.192h2.748c0,3.111.727,5.172,4.162,5.172,2.586,0,3.839-1.5,3.839-4,0-5.9-10.182-4.4-10.182-11.879,0-4.162,2.869-5.657,6.829-5.657,4.485,0,5.9,3.111,5.9,6.546h-2.626c-.121-2.869-.889-4.4-3.96-4.4a3.2,3.2,0,0,0-3.434,3.273c0,5.657,10.182,4.121,10.182,11.718C1417.895,205.715,1415.43,207.856,1411.187,207.856Z" transform="translate(-1271.869 -175.047)"/></g><g transform="translate(146.187 70.669)"><path class="a" d="M1438.2,180.924a2.47,2.47,0,0,1,.323-1.212,2.245,2.245,0,0,1,.849-.889,2.285,2.285,0,0,1,2.344,0,2.246,2.246,0,0,1,.849.889,2.47,2.47,0,0,1,.323,1.212,2.44,2.44,0,0,1-.283,1.212,2.246,2.246,0,0,1-.849.889,2.06,2.06,0,0,1-1.172.323,2.317,2.317,0,0,1-1.172-.323,2.547,2.547,0,0,1-.849-.889A2.139,2.139,0,0,1,1438.2,180.924Zm.4,0a2.357,2.357,0,0,0,.242,1.051,1.9,1.9,0,0,0,.727.768,1.945,1.945,0,0,0,.97.283,1.611,1.611,0,0,0,.97-.283,2.347,2.347,0,0,0,.687-.727,2.236,2.236,0,0,0,.242-1.051,2.074,2.074,0,0,0-.242-1.01,1.711,1.711,0,0,0-.687-.727,1.945,1.945,0,0,0-.97-.283,1.611,1.611,0,0,0-.97.283,2.5,2.5,0,0,0-.727.727A1.819,1.819,0,0,0,1438.6,180.924Zm1.455.242v1.091h-.444V179.51h.889a1.338,1.338,0,0,1,.768.2.727.727,0,0,1,.283.606.6.6,0,0,1-.4.606.623.623,0,0,1,.4.646v.2a1.014,1.014,0,0,0,.04.4v.04h-.485a1.014,1.014,0,0,1-.04-.4v-.364c-.04-.2-.162-.323-.444-.323h-.566Zm0-.4h.525a.494.494,0,0,0,.364-.121.409.409,0,0,0,.162-.283c0-.162-.04-.283-.121-.323-.081-.081-.242-.081-.444-.081h-.445v.808Z" transform="translate(-1438.2 -178.5)"/></g></g><line class="b" y2="85.337" transform="translate(411.45 15.071)"/><g transform="translate(21.779 26.062)"><path class="a" d="M76.446,65.833c0-.646-5.051-1.333-11.273-1.333S53.9,65.187,53.9,65.833s5.051,1.333,11.273,1.333S76.446,66.48,76.446,65.833Z" transform="translate(-53.9 -64.5)"/></g><g transform="translate(21.698)"><circle class="a" cx="6.465" cy="6.465" r="6.465"/></g><g transform="translate(33.617 10.829)"><path class="a" d="M87.805,36.012A4.606,4.606,0,1,0,83.2,31.406,4.6,4.6,0,0,0,87.805,36.012Z" transform="translate(-83.199 -26.8)"/></g><g transform="translate(0 15.92)"><path class="a" d="M66.063,113.221,45.982,63.886l5.738-15.192a1.479,1.479,0,0,0-.04-1.172,1.409,1.409,0,0,0-.889-.768A65.492,65.492,0,0,0,33.052,44.41H31.6a3.971,3.971,0,0,0,.283-1.374,3.637,3.637,0,0,0-7.273,0,3.5,3.5,0,0,0,.485,1.818,56.108,56.108,0,0,0-9.7,1.9,1.409,1.409,0,0,0-.889.768,1.479,1.479,0,0,0-.04,1.172l5.859,15.273L.121,113.221a2.807,2.807,0,0,0-.121.727c0,1.7,2.061,1.98,3.717,2.222,1.616.242,3.96.485,6.909.646,5.98.364,13.98.606,22.465.606s16.445-.2,22.466-.606c2.95-.2,5.253-.4,6.909-.646s3.717-.566,3.717-2.222C66.144,113.908,66.144,113.544,66.063,113.221Zm-32.971,1.253c-16.324,0-26.546-.727-29.739-1.333l19.92-48.608a1.288,1.288,0,0,0,0-1.091l-5.536-14.3a65.4,65.4,0,0,1,30.627,0L42.992,63.361a1.682,1.682,0,0,0,0,1.091l19.8,48.689C59.639,113.746,49.416,114.474,33.092,114.474Z" transform="translate(0 -39.4)"/></g><path class="a" d="M69.809,146.988l-5.455-13.374v-2.667a8.28,8.28,0,0,0-2.344-5.859A6.851,6.851,0,0,0,60.677,124l-9.334-23.435c-.04-.081-.081-.162-.162-.162-1.9.162-4.2.283-6.748.283s-4.849-.121-6.748-.283c-.081,0-.121.121-.162.162l-6.99,17.415a8.27,8.27,0,0,0-3.394,6.788v2.222L19.1,147.028c1.374.485,9.576.889,10.788.768V124.765a5.375,5.375,0,1,1,10.748,0v8.526a8.182,8.182,0,0,0-4.727,7.515v7.313h2.748v-7.313a5.233,5.233,0,0,1,10.465,0v7.313h2.99v-7.313a8.094,8.094,0,0,0-1.333-4.445v-5.536a5.469,5.469,0,0,1,10.91-.04V147.8C62.334,147.675,68.637,147.432,69.809,146.988ZM51.384,124.2a7.629,7.629,0,0,0-2.182,2.222,8.521,8.521,0,0,0-1.172,2.788,8.111,8.111,0,0,0-.2,1.7v2.667a9.087,9.087,0,0,0-3.96-.97h-.525v-7.919a7.74,7.74,0,0,0-2.505-5.9v-4.041a5.862,5.862,0,0,1,11.718,0v8.808h0A11.638,11.638,0,0,0,51.384,124.2Z" transform="translate(-11.383 -59.833)"/><g transform="translate(20.082 64.811)"><path class="a" d="M51.155,163.309a1.455,1.455,0,1,0-1.455-1.455A1.449,1.449,0,0,0,51.155,163.309Z" transform="translate(-49.7 -160.4)"/></g><g transform="translate(24.728 64.811)"><path class="a" d="M64.109,161.855a1.455,1.455,0,1,0-1.455,1.455A1.449,1.449,0,0,0,64.109,161.855Z" transform="translate(-61.2 -160.4)"/></g><g transform="translate(31.718 53.901)"><path class="a" d="M79.955,136.309a1.455,1.455,0,1,0-1.455-1.455A1.4,1.4,0,0,0,79.955,136.309Z" transform="translate(-78.5 -133.4)"/></g><g transform="translate(36.365 53.901)"><path class="a" d="M91.455,136.309A1.455,1.455,0,1,0,90,134.855,1.4,1.4,0,0,0,91.455,136.309Z" transform="translate(-90 -133.4)"/></g><g transform="translate(41.133 71.073)"><path class="a" d="M103.255,178.809a1.455,1.455,0,1,0-1.455-1.455A1.475,1.475,0,0,0,103.255,178.809Z" transform="translate(-101.8 -175.9)"/></g><g transform="translate(45.78 71.073)"><path class="a" d="M116.209,177.355a1.455,1.455,0,1,0-1.455,1.455A1.449,1.449,0,0,0,116.209,177.355Z" transform="translate(-113.3 -175.9)"/></g><g transform="translate(29.052 79.276)"><path class="a" d="M73.274,198.948a1.374,1.374,0,1,0-1.374-1.374A1.362,1.362,0,0,0,73.274,198.948Z" transform="translate(-71.9 -196.2)"/></g><g transform="translate(33.415 79.276)"><path class="a" d="M85.448,197.574a1.374,1.374,0,1,0-1.374,1.374A1.388,1.388,0,0,0,85.448,197.574Z" transform="translate(-82.7 -196.2)"/></g><g transform="translate(32.562 58.785)"><path class="a" d="M83.542,147.715a4.908,4.908,0,0,1-2.586-.727.818.818,0,1,1,.889-1.374,3.355,3.355,0,0,0,3.475,0,.818.818,0,0,1,.889,1.374A5.41,5.41,0,0,1,83.542,147.715Z" transform="translate(-80.588 -145.488)"/></g><g transform="translate(20.966 69.816)"><path class="a" d="M54.842,175.015a4.909,4.909,0,0,1-2.586-.727.818.818,0,0,1,.889-1.374,3.355,3.355,0,0,0,3.475,0,.818.818,0,0,1,.889,1.374A5.526,5.526,0,0,1,54.842,175.015Z" transform="translate(-51.888 -172.788)"/></g><g transform="translate(29.653 83.877)"><path class="a" d="M76.342,209.815a4.908,4.908,0,0,1-2.586-.727.818.818,0,0,1,.889-1.374,3.355,3.355,0,0,0,3.475,0,.818.818,0,0,1,.889,1.374A5.526,5.526,0,0,1,76.342,209.815Z" transform="translate(-73.388 -207.588)"/></g><g transform="translate(41.976 76.079)"><path class="a" d="M106.842,190.515a4.908,4.908,0,0,1-2.586-.727.818.818,0,1,1,.889-1.374,3.355,3.355,0,0,0,3.475,0,.818.818,0,1,1,.889,1.374A5.41,5.41,0,0,1,106.842,190.515Z" transform="translate(-103.888 -188.288)"/></g></svg>